# xmcd CD database file
#
# Track frame offsets:
#	150
#	10820
#	18785
#	30045
#	41617
#	55297
#	68245
#	80122
#	89735
#	101655
#	110645
#	123730
#	135037
#	148897
#	159757
#	170605
#
# Disc length: 2412 seconds
#
# Revision: 1
# Processed by: cddbd v1.5.2PL0 Copyright (c) Steve Scherf et al.
# Submitted via: CDex 1.70beta2
#
DISCID=cf096a10
DTITLE=Marie Laforêt - Tendres Années 60
DYEAR=1900
DGENRE=
TTITLE0=Saint-Tropez blues
TTITLE1=Tumbleweed
TTITLE2=Tu fais semblant
TTITLE3=Les vendanges de l'amour
TTITLE4=Mary Ann
TTITLE5=Blowin'in the Wind
TTITLE6=House of the rising sun
TTITLE7=L'amour en fleurs
TTITLE8=Qu'est-ce qui fait pleurer les filles
TTITLE9=IIs s'en vont sur un nuage
TTITLE10=Le roi a fait battre le tambour
TTITLE11=Aux marches du palais
TTITLE12=Frantz
TTITLE13=Viens sur la montagne
TTITLE14=L'amour qu'il fera demain
TTITLE15=La tendresse
EXTD=
EXTT0=
EXTT1=
EXTT2=
EXTT3=
EXTT4=
EXTT5=
EXTT6=
EXTT7=
EXTT8=
EXTT9=
EXTT10=
EXTT11=
EXTT12=
EXTT13=
EXTT14=
EXTT15=
PLAYORDER=
